<svg id="Layer_1" data-name="Layer 1" xmlns="http://www.w3.org/2000/svg" viewBox="0 0 220 100"><defs><style>.cls-1{fill:#fff;}</style></defs><title>SVg_File</title><path class="cls-1" d="M28.28,62.85c-7.2,0-13-6.53-13-14.58s5.84-14.58,13-14.58,13,6.53,13,14.58-5.83,14.58-13,14.58ZM46.19,1.73A4.18,4.18,0,0,0,42,5.9c0,7.46,0,12.81,0,21.18-.67-.55-1.18-1-1.71-1.4C33,20.07,22,19.94,14,25.72,5,32.21,1.57,41.34,3.1,52.14,4.55,62.3,10,69.85,19.9,73.25c17,5.81,33.59-5,34.84-22.09.32-4.39.36-8.8.32-13.24V35.09c0-12.51,0-20.85,0-33.36ZM84.62,62.92c-7.2,0-13-6.53-13-14.58s5.84-14.58,13-14.58,13,6.52,13,14.58-5.84,14.58-13,14.58ZM110.4,45.11C109.15,28,92.52,17.2,75.56,23c-9.9,3.4-15.35,11-16.8,21.11-1.53,10.8,1.91,19.92,10.92,26.42,8,5.78,19,5.64,26.28,0,.71-.55,1.39-1.14,2.44-2v.83a4.19,4.19,0,0,0,4.19,4.19h8.11v-.22h0v-13c.07-5.11.07-10.18-.3-15.22ZM213.89,23.84h.32c.54,0,.76.27.76.69s-.22.67-.76.67h-.32V23.84Zm0,1.89h.47l.52.78h.71l-.61-1a1.12,1.12,0,0,0,.65-1,1.23,1.23,0,0,0-1.4-1.24h-1v3.24h.66v-.78ZM160.57,72.67h0v.92h-8.84a4.18,4.18,0,0,1-4.19-4.19c0-6.38,0-18.44,0-25a15.37,15.37,0,0,0-.51-4.06c-1.13-4-4.62-6.28-9.22-6.12-4.86.17-8.58,3-9.43,7.23A18.62,18.62,0,0,0,128,45v1s0,8.26,0,12.39v11a4.19,4.19,0,0,1-4.18,4.19H115V68.84c0-7.41-.07-14.81,0-22.21,0-.39,0-.78,0-1.18h0c0-.33,0-.66,0-1,.14-9.3,3.88-16.63,12.52-20.83C135,20,148,20.53,154.78,28a21.51,21.51,0,0,1,5.76,14.5c.14,10.05,0,20.1,0,30.16Zm53.73-50.2a2.34,2.34,0,0,1,2.4,2.46,2.38,2.38,0,1,1-2.4-2.46Zm0,5.38a2.93,2.93,0,1,0-2.91-2.92,2.89,2.89,0,0,0,2.91,2.92ZM203.12,50.32a15,15,0,0,1-5,9.57,10.93,10.93,0,0,1-1.15.88,12,12,0,0,1-6.8,2.16,11.7,11.7,0,0,1-3.09-.42,12.41,12.41,0,0,1-4.87-2.62,15.2,15.2,0,0,1-5.09-11.55c0-.15,0-.3,0-.45a16.21,16.21,0,0,1,1.2-5.67c2.06-5,6.53-8.4,11.72-8.46h.12a12.23,12.23,0,0,1,8.37,3.4A14.66,14.66,0,0,1,202,42.22a15.85,15.85,0,0,1,1.08,8.1Zm13-4.28a26.07,26.07,0,0,0-8.33-17.83,25.85,25.85,0,0,0-17.6-6.69l-.85,0a27.55,27.55,0,0,0-9.19,1.93A25.79,25.79,0,0,0,164.64,42.3a28.14,28.14,0,0,0,1.78,17.59,27,27,0,0,0,3.64,5.93,25.21,25.21,0,0,0,7.11,6.08,22.58,22.58,0,0,0,4.17,1.83c.61.2,1.22.38,1.83.52a23.54,23.54,0,0,0,5,.54,23.9,23.9,0,0,0,6-.77,25.48,25.48,0,0,0,8.44-4.14l.57-.42a16.19,16.19,0,0,1,.13,2c0,4.49-1.68,8.67-4.67,11.18a14.83,14.83,0,0,1-5.33,2.84,4.19,4.19,0,0,0-3,4v8.8a29.82,29.82,0,0,0,3.29-.18,25.67,25.67,0,0,0,14.3-6.51,26.11,26.11,0,0,0,8.33-17.83c.15-4.62.25-9.24.26-13.86,0-2,0-4.08-.07-6.12q-.06-3.87-.19-7.73Z"/></svg>